<svg width="320" height="320" viewBox="0 0 320 320" xmlns="http://www.w3.org/2000/svg" shape-rendering="crispEdges"><rect width="100%" height="100%" fill="#e1d7d5" /><rect width="100" height="10" x="110" y="260" fill="#fffdf2" /><rect width="100" height="10" x="110" y="270" fill="#fffdf2" /><rect width="20" height="10" x="110" y="280" fill="#fffdf2" /><rect width="70" height="10" x="140" y="280" fill="#fffdf2" /><rect width="20" height="10" x="110" y="290" fill="#fffdf2" /><rect width="70" height="10" x="140" y="290" fill="#fffdf2" /><rect width="20" height="10" x="110" y="300" fill="#fffdf2" /><rect width="70" height="10" x="140" y="300" fill="#fffdf2" /><rect width="20" height="10" x="110" y="310" fill="#fffdf2" /><rect width="70" height="10" x="140" y="310" fill="#fffdf2" /><rect width="100" height="10" x="110" y="260" fill="#ff1a0b" /><rect width="100" height="10" x="110" y="270" fill="#f78a18" /><rect width="20" height="10" x="110" y="280" fill="#fff449" /><rect width="70" height="10" x="140" y="280" fill="#fff449" /><rect width="20" height="10" x="110" y="290" fill="#068940" /><rect width="70" height="10" x="140" y="290" fill="#068940" /><rect width="20" height="10" x="110" y="300" fill="#2b83f6" /><rect width="70" height="10" x="140" y="300" fill="#2b83f6" /><rect width="20" height="10" x="110" y="310" fill="#9f21a0" /><rect width="70" height="10" x="140" y="310" fill="#9f21a0" /><rect width="30" height="10" x="90" y="90" fill="#fff671" /><rect width="20" height="10" x="140" y="90" fill="#fff671" /><rect width="40" height="10" x="180" y="90" fill="#fff671" /><rect width="10" height="10" x="80" y="100" fill="#fff671" /><rect width="20" height="10" x="90" y="100" fill="#c4da53" /><rect width="30" height="10" x="110" y="100" fill="#fff671" /><rect width="10" height="10" x="140" y="100" fill="#c4da53" /><rect width="90" height="10" x="150" y="100" fill="#fff671" /><rect width="10" height="10" x="80" y="110" fill="#fff671" /><rect width="20" height="10" x="90" y="110" fill="#c4da53" /><rect width="90" height="10" x="110" y="110" fill="#fff671" /><rect width="30" height="10" x="200" y="110" fill="#c4da53" /><rect width="20" height="10" x="230" y="110" fill="#fff671" /><rect width="70" height="10" x="90" y="120" fill="#fff671" /><rect width="20" height="10" x="160" y="120" fill="#c4da53" /><rect width="20" height="10" x="180" y="120" fill="#fff671" /><rect width="30" height="10" x="200" y="120" fill="#c4da53" /><rect width="20" height="10" x="230" y="120" fill="#fff671" /><rect width="30" height="10" x="90" y="130" fill="#fff671" /><rect width="20" height="10" x="120" y="130" fill="#c4da53" /><rect width="20" height="10" x="140" y="130" fill="#fff671" /><rect width="20" height="10" x="160" y="130" fill="#c4da53" /><rect width="20" height="10" x="180" y="130" fill="#fff671" /><rect width="30" height="10" x="200" y="130" fill="#c4da53" /><rect width="20" height="10" x="230" y="130" fill="#fff671" /><rect width="30" height="10" x="90" y="140" fill="#fff671" /><rect width="20" height="10" x="120" y="140" fill="#c4da53" /><rect width="100" height="10" x="140" y="140" fill="#fff671" /><rect width="160" height="10" x="80" y="150" fill="#fff671" /><rect width="160" height="10" x="80" y="160" fill="#fff671" /><rect width="170" height="10" x="80" y="170" fill="#fff671" /><rect width="170" height="10" x="80" y="180" fill="#fff671" /><rect width="170" height="10" x="80" y="190" fill="#fff671" /><rect width="170" height="10" x="80" y="200" fill="#fff671" /><rect width="160" height="10" x="80" y="210" fill="#fff671" /><rect width="10" height="10" x="80" y="220" fill="#fff671" /><rect width="20" height="10" x="90" y="220" fill="#c4da53" /><rect width="130" height="10" x="110" y="220" fill="#fff671" /><rect width="10" height="10" x="80" y="230" fill="#fff671" /><rect width="20" height="10" x="90" y="230" fill="#c4da53" /><rect width="30" height="10" x="110" y="230" fill="#fff671" /><rect width="30" height="10" x="140" y="230" fill="#000000" /><rect width="60" height="10" x="170" y="230" fill="#fff671" /><rect width="130" height="10" x="90" y="240" fill="#fff671" /><rect width="10" height="10" x="220" y="240" fill="#c4da53" /><rect width="10" height="10" x="230" y="240" fill="#fff671" /><rect width="140" height="10" x="90" y="250" fill="#fff671" /><rect width="80" height="10" x="80" y="140" fill="#5648ed" /><rect width="80" height="10" x="170" y="140" fill="#5648ed" /><rect width="10" height="10" x="80" y="150" fill="#5648ed" /><rect width="20" height="10" x="90" y="150" fill="#ffffff" /><rect width="40" height="10" x="110" y="150" fill="#000000" /><rect width="10" height="10" x="150" y="150" fill="#5648ed" /><rect width="10" height="10" x="170" y="150" fill="#5648ed" /><rect width="20" height="10" x="180" y="150" fill="#ffffff" /><rect width="40" height="10" x="200" y="150" fill="#000000" /><rect width="10" height="10" x="240" y="150" fill="#5648ed" /><rect width="10" height="10" x="80" y="160" fill="#5648ed" /><rect width="20" height="10" x="90" y="160" fill="#ffffff" /><rect width="40" height="10" x="110" y="160" fill="#000000" /><rect width="10" height="10" x="150" y="160" fill="#5648ed" /><rect width="10" height="10" x="170" y="160" fill="#5648ed" /><rect width="20" height="10" x="180" y="160" fill="#ffffff" /><rect width="40" height="10" x="200" y="160" fill="#000000" /><rect width="10" height="10" x="240" y="160" fill="#5648ed" /><rect width="40" height="10" x="50" y="170" fill="#5648ed" /><rect width="20" height="10" x="90" y="170" fill="#ffffff" /><rect width="40" height="10" x="110" y="170" fill="#000000" /><rect width="30" height="10" x="150" y="170" fill="#5648ed" /><rect width="20" height="10" x="180" y="170" fill="#ffffff" /><rect width="40" height="10" x="200" y="170" fill="#000000" /><rect width="10" height="10" x="240" y="170" fill="#5648ed" /><rect width="10" height="10" x="50" y="180" fill="#5648ed" /><rect width="10" height="10" x="80" y="180" fill="#5648ed" /><rect width="20" height="10" x="90" y="180" fill="#ffffff" /><rect width="40" height="10" x="110" y="180" fill="#000000" /><rect width="10" height="10" x="150" y="180" fill="#5648ed" /><rect width="10" height="10" x="170" y="180" fill="#5648ed" /><rect width="20" height="10" x="180" y="180" fill="#ffffff" /><rect width="40" height="10" x="200" y="180" fill="#000000" /><rect width="10" height="10" x="240" y="180" fill="#5648ed" /><rect width="10" height="10" x="50" y="190" fill="#5648ed" /><rect width="10" height="10" x="80" y="190" fill="#5648ed" /><rect width="20" height="10" x="90" y="190" fill="#ffffff" /><rect width="40" height="10" x="110" y="190" fill="#000000" /><rect width="10" height="10" x="150" y="190" fill="#5648ed" /><rect width="10" height="10" x="170" y="190" fill="#5648ed" /><rect width="20" height="10" x="180" y="190" fill="#ffffff" /><rect width="40" height="10" x="200" y="190" fill="#000000" /><rect width="10" height="10" x="240" y="190" fill="#5648ed" /><rect width="10" height="10" x="80" y="200" fill="#5648ed" /><rect width="20" height="10" x="90" y="200" fill="#ffffff" /><rect width="40" height="10" x="110" y="200" fill="#000000" /><rect width="10" height="10" x="150" y="200" fill="#5648ed" /><rect width="10" height="10" x="170" y="200" fill="#5648ed" /><rect width="20" height="10" x="180" y="200" fill="#ffffff" /><rect width="40" height="10" x="200" y="200" fill="#000000" /><rect width="10" height="10" x="240" y="200" fill="#5648ed" /><rect width="80" height="10" x="80" y="210" fill="#5648ed" /><rect width="80" height="10" x="170" y="210" fill="#5648ed" /></svg>